<svg xmlns="http://www.w3.org/2000/svg" width="52" height="44" fill="none" viewBox="0 0 52 44">
  <path fill="#FFFBE9" stroke="#001B35" stroke-linecap="round" stroke-linejoin="round" stroke-width=".805817" d="M42.7278 12.367V5.61663v-.21631l-.0093-.11124c0-.03863 0-.07725-.0077-.11433-.0077-.03709-.0108-.09271-.017-.13906-.0062-.04635 0-.05562-.0108-.08498-.0108-.02935-.0155-.09888-.0247-.1545l-.0139-.07262c-.0093-.05099-.0201-.09888-.0325-.1545 0-.02473-.0108-.04945-.017-.07262-.0108-.0479-.0247-.0958-.0371-.14215l-.0231-.07879c-.0124-.04327-.0263-.08653-.0418-.12979-.0092-.02935-.0185-.05871-.0293-.08807-.0108-.02935-.0294-.07725-.0433-.11433s-.0262-.06798-.0401-.10043l-.0418-.09888-.0479-.10043-.0417-.08343c-.0201-.04017-.0401-.08035-.0618-.12052l-.0401-.07107c-.0232-.04326-.0479-.08498-.0727-.12824l-.0401-.0618c-.0263-.04326-.0541-.08652-.0819-.12824l-.0417-.0618c-.0294-.04017-.0572-.08189-.0881-.12206l-.0525-.06798c-.0278-.03709-.0557-.07417-.0866-.1097-.0309-.03554-.0479-.05717-.0726-.08498l-.0741-.08652c-.0464-.05099-.0943-.10043-.1422-.15451l-.0154-.01545-.017-.01545c-.0495-.04944-.0989-.09579-.1545-.14215-.0557-.04635-.0587-.05098-.0881-.07725l-.0819-.07107-.1143-.08189-.0665-.05253-.1236-.08652-.0602-.04326-.1283-.08189-.0633-.04481c-.0417-.02626-.085-.04944-.1283-.07416l-.071-.03245-.1221-.06334-.0834-.04018c-.0371-.01854-.0742-.03553-.1128-.05098l-.0958-.0479-.102-.04017-.1143-.04326-.0881-.02936-.1298-.04171-.0788-.017c-.0463-.01391-.0942-.02781-.1406-.03863l-.0726-.01699-.1545-.03245-.0741-.0139-.1545-.02472-.0742-.01082c-.0448 0-.0912-.01236-.136-.01545l-.1205-.00927-.1081-.00773H12.8001c-2.5246-.006176-4.65522 1.97458-4.72938 4.4992-.01736.61953.08971 1.23625.31487 1.81368.22515.57743.56383 1.10384.99598 1.54809.43216.44426.94903.79733 1.52003 1.03835.571.24097 1.1845.36507 1.8043.36477h14.199L2.35711 34.8104c-.64804.6482-1.08933 1.4741-1.2681 2.3731-.178765.899-.08698 1.8308.26377 2.6776.35074.8469.94469 1.5707 1.70675 2.08.76207.5094 1.65804.7813 2.57464.7815h8.34333l1.7907-3.5273c.9763-1.9221 2.2502-3.6778 3.7745-5.2022L36.716 16.8198v18.9501c0 .6087.1199 1.2114.3528 1.7738.233.5623.5744 1.0733 1.0048 1.5037.4304.4304.9414.7719 1.5038 1.0048.5623.2329 1.1651.3528 1.7738.3528h5.0909V12.367h-3.7143z"/>
  <path fill="#285056" stroke="#001B35" stroke-linecap="round" stroke-linejoin="round" stroke-width=".805817" d="M51 5.61662v-.21631c0-.03708 0-.07416-.0078-.11124-.0077-.03709 0-.07726-.0092-.11434-.0093-.03708-.0093-.0927-.0155-.13905-.0062-.04635-.0077-.05562-.0108-.08498-.0031-.02936-.017-.09888-.0247-.15451l-.0139-.07261c-.0093-.05099-.0217-.09889-.0325-.15451 0-.02472-.0108-.04944-.017-.07262-.0123-.04789-.0247-.09579-.0386-.14214-.0139-.04635-.0139-.05253-.0216-.0788-.0077-.02626-.0278-.08652-.0417-.12978l-.0294-.08807c-.0139-.03863-.0293-.07725-.0433-.11434-.0139-.03708-.0262-.06798-.0401-.10042-.0139-.03245-.0278-.06644-.0433-.09889-.0154-.03244-.0324-.0757-.051-.11279-.0185-.03708-.0262-.05562-.0401-.08343-.0139-.02781-.0418-.08034-.0634-.12051-.0216-.04017-.0263-.0479-.0386-.07107-.0124-.02318-.0479-.08498-.0742-.12824l-.0386-.06181c-.0263-.04326-.0541-.08652-.0819-.12824-.0278-.04171-.0294-.04171-.0433-.0618l-.0865-.12206-.0525-.06798c-.0294-.03708-.0572-.07416-.0865-.1097-.0294-.03553-.0479-.05716-.0727-.08498-.0247-.02781-.0494-.05871-.0757-.08652-.0463-.05099-.0927-.10043-.1421-.1545-.0155-.01546-.0155-.01546-.0309-.03091-.0494-.04944-.0989-.09579-.1545-.14214l-.0881-.07725c-.0278-.02318-.0541-.0479-.0834-.07108-.0294-.02317-.0742-.05871-.1113-.08652l-.0664-.05253-.1221-.08652-.0618-.04326-.1282-.08189-.0618-.03863-.1298-.05717-.071-.03862c-.0402-.02163-.0804-.04326-.1221-.06335l-.0819-.04017c-.0371-.01854-.0757-.03554-.1128-.05099l-.0989-.04789-.1004-.04017-.1143-.04327-.0881-.02935-.1298-.04172-.0788-.02163c-.0463-.0139-.0942-.02781-.1421-.03863l-.0726-.01699c-.0495-.01082-.0974-.02318-.1546-.03245l-.0741-.0139-.1468-.02472-.0803-.00618c-.0464 0-.0912-.01236-.1375-.01545l-.1159-.00927L46.5935 1h-25.617c-1.2293 0-2.4083.48835-3.2775 1.35761-.8693.86926-1.3577 2.04823-1.3577 3.27755s.4884 2.40829 1.3577 3.27755c.8692.86926 2.0482 1.35759 3.2775 1.35759H35.174L10.6277 34.8104c-.86929.8693-1.35768 2.0484-1.35768 3.2778s.48839 2.4085 1.35768 3.2778c.8694.8694 2.0484 1.3578 3.2779 1.3578 1.2294 0 2.4085-.4884 3.2778-1.3578l24.5463-24.5462v18.9501c0 1.2293.4883 2.4083 1.3576 3.2775.8692.8693 2.0482 1.3576 3.2775 1.3576 1.2293 0 2.4083-.4883 3.2776-1.3576C50.5116 38.1782 51 36.9992 51 35.7699V5.61662z"/>
</svg>
