<svg xmlns="http://www.w3.org/2000/svg" width="52" height="46" fill="none" viewBox="0 0 52 46">
  <path fill="#FFFBE9" stroke="#001B35" stroke-linecap="round" stroke-linejoin="round" stroke-width=".580408" d="M44.8026 42.2043c-.8321-1.9222-1.9906-3.6859-3.4242-5.213-.0973-.1188-.2013-.2343-.3119-.3449L14.85 10.4299h21.0647c1.3129 0 2.5721-.52155 3.5005-1.44996.9284-.92841 1.45-2.1876 1.45-3.50057s-.5216-2.57217-1.45-3.50058S37.2276.528809 35.9147.528809H5.95056c-.16502 0-.33004.009901-.48515.024752-1.09866.108047-2.12968.580219-2.92919 1.341459-.79952.76124-1.32165 1.76788-1.48341 2.85992-.03406.23999-.0517.48203-.05281.72443V37.6712c0 .6501.12805 1.2939.37684 1.8945s.61344 1.1464 1.07315 1.6061c.4597.4597 1.00544.8243 1.60607 1.0731.60063.2488 1.24438.3769 1.8945.3769h5.43404V20.9664l22.6802 22.6818c.4594.4599 1.005.8246 1.6056 1.0732.6007.2486 1.2444.3763 1.8944.3757h8.487l-1.2492-2.8928z"/>
  <path fill="#285056" stroke="#001B35" stroke-linecap="round" stroke-linejoin="round" stroke-width=".580408" d="M23.3348 10.4299h18.591c1.313 0 2.5722-.52154 3.5006-1.44995.9284-.92841 1.45-2.18761 1.45-3.50058s-.5216-2.57216-1.45-3.50057C44.498 1.05039 43.2388.528813 41.9258.528813H11.3842c-.2114-.000283-.4225.013499-.6321.041255-1.08519.13979-2.09353.635182-2.8674 1.408742-.77386.77356-1.26964 1.78171-1.40985 2.86689-.02776.21008-.04154.42177-.04125.63367V37.6712c0 1.313.52157 2.5722 1.44998 3.5006.92841.9284 2.18762 1.45 3.50062 1.45 1.3129 0 2.5721-.5216 3.5005-1.45.9284-.9284 1.45-2.1876 1.45-3.5006V17.4317l26.2165 26.2165c.4593.4601 1.0049.8249 1.6055 1.0736.6007.2486 1.2445.3761 1.8946.3752 4.3449.0265 6.6238-5.3466 3.5-8.4506L23.3348 10.4299z"/>
</svg>
