<svg width="20" height="20" viewBox="0 0 20 20" fill="none" xmlns="http://www.w3.org/2000/svg">
<path fill-rule="evenodd" clip-rule="evenodd" d="M2 9C2 5.13401 5.13401 2 9 2C12.866 2 16 5.13401 16 9C16 10.8865 15.2537 12.5987 14.0403 13.8575C14.0066 13.8835 13.9742 13.912 13.9433 13.9429C13.9124 13.9738 13.8839 14.0062 13.8579 14.0399C12.5991 15.2536 10.8867 16 9 16C5.13401 16 2 12.866 2 9ZM14.6179 16.0317C13.0782 17.2635 11.1251 18 9 18C4.02944 18 0 13.9706 0 9C0 4.02944 4.02944 0 9 0C13.9706 0 18 4.02944 18 9C18 11.1249 17.2636 13.0778 16.0321 14.6175L19.7075 18.2929C20.098 18.6834 20.098 19.3166 19.7075 19.7071C19.317 20.0976 18.6838 20.0976 18.2933 19.7071L14.6179 16.0317Z" fill="#C4C4C4"/>
</svg>
