<svg width="87" height="40" viewBox="0 0 87 40" fill="none" xmlns="http://www.w3.org/2000/svg">
<g clip-path="url(#clip0)">
<path fill-rule="evenodd" clip-rule="evenodd" d="M58.3064 4.52388H55.1296L57.3761 2.28328C57.1994 2.0359 57.0023 1.80376 56.7876 1.58969C56.573 1.37563 56.3409 1.17964 56.0928 1.00342L53.8464 3.24402V0.0754403C53.5525 0.0263019 53.2501 0.000320668 52.9427 -0.000244141H52.9364C52.6284 0.000320668 52.3266 0.0263019 52.0326 0.0754403V3.24402L49.7862 1.00342C49.5381 1.17964 49.3055 1.37563 49.0913 1.58969L49.0902 1.59083C48.8756 1.80432 48.6791 2.0359 48.503 2.28328L50.7495 4.52388H47.5726C47.5726 4.52388 47.4967 5.11862 47.4967 5.42645V5.4304C47.4967 5.73765 47.5228 6.03982 47.5726 6.33353H50.7495L48.503 8.57357C48.8564 9.06834 49.2901 9.50154 49.7862 9.85343L52.0326 7.61282V10.7814C52.3266 10.8305 52.6277 10.8565 52.9353 10.8571H52.9432C53.2507 10.8565 53.553 10.8305 53.8464 10.7814V7.61282L56.0935 9.85343C56.3409 9.67777 56.573 9.48122 56.7876 9.26715H56.7883C57.0023 9.05309 57.1994 8.82095 57.3761 8.57357L55.129 6.33353H58.3064C58.3557 6.0404 58.3818 5.73935 58.3818 5.4321V5.42475C58.3818 5.1175 58.3557 4.81701 58.3064 4.52388ZM63.6213 27.6004C62.714 26.7503 62.2389 25.4095 62.1948 23.5778H73.6376C73.6591 23.3383 73.6812 23.0502 73.7027 22.7114C73.7248 22.3736 73.7362 22.0523 73.7362 21.7467C73.7362 20.6346 73.5827 19.6049 73.2768 18.6566C72.9706 17.7083 72.5226 16.891 71.933 16.2042C71.3424 15.5174 70.6102 14.978 69.736 14.5855C68.8616 14.1929 67.8451 13.9964 66.6871 13.9964C65.3314 13.9964 64.1564 14.2308 63.162 14.6995C62.1676 15.1689 61.3426 15.8009 60.6868 16.5962C60.0315 17.3926 59.5446 18.3296 59.2281 19.4084C58.9109 20.4883 58.7524 21.6489 58.7524 22.891C58.7524 24.1562 58.9166 25.3168 59.2444 26.3741C59.5723 27.4315 60.0916 28.3476 60.8017 29.1214C61.5118 29.8952 62.4139 30.4944 63.5069 30.9197C64.5992 31.345 65.9107 31.5575 67.4414 31.5575C68.4901 31.5575 69.446 31.4806 70.3101 31.3287C71.1726 31.1756 71.9654 30.9474 72.6868 30.6419C72.6647 30.1838 72.5996 29.7213 72.4903 29.2518C72.3805 28.7831 72.2389 28.3855 72.0639 28.0584C70.6646 28.6034 69.19 28.8763 67.6378 28.8763C65.8671 28.8763 64.5284 28.4504 63.6213 27.6004ZM32.9829 14.3887C33.2009 14.3458 33.4251 14.313 33.6546 14.291C33.8844 14.2695 34.1189 14.2582 34.3595 14.2582C34.5776 14.2582 34.8074 14.2695 35.0481 14.291C35.2882 14.313 35.5181 14.3458 35.7367 14.3887C35.7582 14.4333 35.786 14.5688 35.8182 14.7981C35.8511 15.0269 35.884 15.2721 35.9168 15.5336C35.9497 15.7951 35.9824 16.0464 36.0153 16.2859C36.0482 16.5259 36.0641 16.6784 36.0641 16.744C36.2827 16.3949 36.5448 16.0571 36.8512 15.7301C37.1569 15.4031 37.5238 15.1083 37.9497 14.8473C38.3756 14.5853 38.8564 14.3785 39.3926 14.226C39.9272 14.0735 40.5229 13.9967 41.1792 13.9967C42.1623 13.9967 43.0751 14.1605 43.9173 14.4875C44.7581 14.8145 45.479 15.3211 46.0804 16.0074C46.6813 16.6948 47.1512 17.5669 47.4904 18.6236C47.829 19.6821 47.9983 20.9291 47.9983 22.3683C47.9983 25.246 47.2169 27.4974 45.6546 29.1211C44.0911 30.7456 41.8786 31.5578 39.0149 31.5578C38.5341 31.5578 38.0427 31.525 37.5397 31.4595C37.0363 31.394 36.5997 31.3064 36.2283 31.198V38.8828C35.966 38.9257 35.6874 38.9584 35.3924 38.9805C35.0974 39.0019 34.8289 39.0133 34.5888 39.0133C34.3482 39.0133 34.0809 39.0019 33.7859 38.9805C33.4909 38.9584 33.223 38.9257 32.9829 38.8828V14.3887ZM26.2614 20.112C26.2614 18.8254 25.9335 17.9317 25.2778 17.4302C24.622 16.9293 23.6712 16.6784 22.4254 16.6784C21.6597 16.6784 20.9446 16.7389 20.278 16.8581C19.611 16.9783 18.9603 17.136 18.3272 17.332C17.9115 16.6124 17.7043 15.7522 17.7043 14.7485C18.4467 14.509 19.2661 14.3237 20.1631 14.1927C21.059 14.0617 21.922 13.9967 22.7533 13.9967C24.9386 13.9967 26.6 14.4933 27.7365 15.4845C28.873 16.4768 29.4416 18.0629 29.4416 20.2424V30.74C28.6766 30.9146 27.7479 31.0941 26.655 31.2794C25.5615 31.4641 24.4464 31.5573 23.3104 31.5573C22.2391 31.5573 21.2724 31.4595 20.4088 31.263C19.5453 31.0664 18.813 30.7513 18.2123 30.3141C17.6109 29.8792 17.1466 29.3223 16.8187 28.6468C16.4908 27.9713 16.3271 27.154 16.3271 26.1938C16.3271 25.2574 16.5179 24.4339 16.9007 23.725C17.283 23.0174 17.8022 22.4283 18.458 21.9594C19.1138 21.4912 19.8681 21.1416 20.7203 20.9134C21.5731 20.6841 22.469 20.5695 23.409 20.5695C24.1084 20.5695 24.682 20.5864 25.1299 20.6186C25.5779 20.652 25.955 20.6898 26.2614 20.7333V20.112ZM0.720703 30.7075L9.57337 16.9725H1.77003C1.70433 16.58 1.67148 16.1445 1.67148 15.6644C1.67148 15.2069 1.70433 14.781 1.77003 14.3885H14.3929L14.5566 14.8143L5.63885 28.5816H13.9994C14.0645 29.0182 14.0979 29.4644 14.0979 29.9219C14.0979 30.3591 14.0645 30.7725 13.9994 31.1656H0.884925L0.720703 30.7075ZM25.0155 23.1535C25.5184 23.1975 25.9335 23.2404 26.2614 23.284V28.6145C25.8457 28.7236 25.3707 28.8049 24.8349 28.8592C24.2997 28.9145 23.7805 28.9416 23.2777 28.9416C22.8846 28.9416 22.469 28.9202 22.0319 28.8761C21.5947 28.8321 21.196 28.7123 20.8353 28.5163C20.4746 28.3197 20.1739 28.0368 19.9338 27.6657C19.6925 27.2957 19.573 26.7829 19.573 26.1288C19.573 25.1048 19.9275 24.3418 20.6388 23.8397C21.3483 23.3387 22.3813 23.0874 23.7369 23.0874C24.0863 23.0874 24.5127 23.11 25.0155 23.1535ZM37.5069 28.745C37.0697 28.6801 36.6428 28.5711 36.2283 28.418V21.6165C36.2283 20.7874 36.3483 20.0747 36.5896 19.4742C36.8297 18.875 37.1462 18.3784 37.5397 17.9859C37.9334 17.5934 38.3807 17.2991 38.8841 17.1037C39.3863 16.9072 39.9113 16.8089 40.4578 16.8089C41.9216 16.8089 42.9766 17.3217 43.6216 18.3457C44.266 19.3709 44.5888 20.7552 44.5888 22.4993C44.5888 23.5895 44.4517 24.5321 44.1788 25.3273C43.9053 26.1237 43.5338 26.7829 43.0639 27.3059C42.5943 27.8295 42.0315 28.2175 41.3757 28.4671C40.72 28.7179 39.9991 28.8433 39.212 28.8433C38.5121 28.8433 37.9441 28.81 37.5069 28.745ZM52.0313 16.9397H49.8998C49.8563 16.7653 49.8234 16.5636 49.8019 16.3349C49.7797 16.1061 49.769 15.8824 49.769 15.6644C49.769 15.447 49.7797 15.2228 49.8019 14.994C49.8234 14.7653 49.8563 14.5636 49.8998 14.3885H55.2122V31.1656C54.9709 31.2085 54.7036 31.2407 54.4086 31.2628C54.1136 31.2842 53.8451 31.2955 53.605 31.2955C53.3864 31.2955 53.1294 31.2842 52.8349 31.2628C52.5393 31.2407 52.2714 31.2085 52.0313 31.1656V16.9397ZM70.5231 21.1587C70.5231 20.5482 70.4409 19.9653 70.2773 19.4084C70.113 18.8526 69.8724 18.368 69.5559 17.9535C69.2381 17.5394 68.8344 17.2068 68.3423 16.9565C67.8508 16.7058 67.2658 16.5798 66.5885 16.5798C65.255 16.5798 64.2334 16.9836 63.5227 17.7902C62.8126 18.5967 62.381 19.7196 62.2276 21.1587H70.5231ZM77.9999 14.291C77.7813 14.313 77.5514 14.3458 77.3113 14.3887V31.1653C77.5735 31.2082 77.8521 31.2409 78.1476 31.263C78.4427 31.2845 78.71 31.2957 78.9512 31.2957C79.1908 31.2957 79.4592 31.2845 79.7537 31.263C80.0487 31.2409 80.3165 31.2082 80.5572 31.1653V22.8259C80.5572 21.6928 80.6829 20.766 80.9343 20.047C81.1853 19.3274 81.5244 18.7604 81.9502 18.3458C82.3766 17.9317 82.8568 17.6432 83.3932 17.4794C83.9288 17.3162 84.4917 17.2342 85.0818 17.2342H85.5241C85.7098 17.2342 85.8899 17.2563 86.0654 17.2992C86.109 17.0382 86.1475 16.7655 86.1804 16.4819C86.2126 16.199 86.229 15.9261 86.229 15.6646C86.229 15.4246 86.2183 15.1958 86.1962 14.9778C86.1747 14.7604 86.1413 14.5525 86.0982 14.356C85.9674 14.3351 85.8077 14.3187 85.6226 14.3074C85.4368 14.2961 85.2562 14.291 85.0818 14.291C83.901 14.291 82.9344 14.5638 82.1802 15.1083C81.4264 15.6534 80.8194 16.2973 80.3607 17.0382C80.3607 16.6672 80.3273 16.2153 80.2621 15.6805C80.1965 15.1473 80.1308 14.7157 80.0657 14.3887C79.8686 14.3458 79.65 14.313 79.4099 14.291C79.1687 14.2696 78.9286 14.2582 78.6885 14.2582C78.4479 14.2582 78.2179 14.2696 77.9999 14.291ZM54.0911 6.57696C54.2258 6.22001 54.3001 5.83424 54.3001 5.43096V5.42588C54.3001 5.0226 54.2258 4.63628 54.0911 4.27988C53.7337 4.14546 53.3464 4.07147 52.9421 4.07147H52.9369C52.5326 4.07147 52.1454 4.14546 51.7874 4.27988C51.6533 4.63628 51.579 5.0226 51.5784 5.42588V5.43096C51.579 5.83424 51.6533 6.22057 51.788 6.57696C52.1454 6.71139 52.5326 6.78538 52.9369 6.78538H52.9421C53.3464 6.78538 53.7337 6.71139 54.0911 6.57696Z" fill="#FF4A00"/>
</g>
<defs>
<clipPath id="clip0">
<rect width="86.4865" height="40" fill="white"/>
</clipPath>
</defs>
</svg>
