<svg width="16" height="19" viewBox="0 0 16 19" fill="none" xmlns="http://www.w3.org/2000/svg">
<path d="M8 10.5869C8.55228 10.5869 9 10.1392 9 9.58691C9 9.03463 8.55228 8.58691 8 8.58691C7.44772 8.58691 7 9.03463 7 9.58691C7 10.1392 7.44772 10.5869 8 10.5869Z" stroke="#919191" stroke-width="2" stroke-linecap="round" stroke-linejoin="round"/>
<path d="M8 3.58691C8.55228 3.58691 9 3.1392 9 2.58691C9 2.03463 8.55228 1.58691 8 1.58691C7.44772 1.58691 7 2.03463 7 2.58691C7 3.1392 7.44772 3.58691 8 3.58691Z" stroke="#919191" stroke-width="2" stroke-linecap="round" stroke-linejoin="round"/>
<path d="M8 17.5869C8.55228 17.5869 9 17.1392 9 16.5869C9 16.0346 8.55228 15.5869 8 15.5869C7.44772 15.5869 7 16.0346 7 16.5869C7 17.1392 7.44772 17.5869 8 17.5869Z" stroke="#919191" stroke-width="2" stroke-linecap="round" stroke-linejoin="round"/>
</svg>
