	<svg width="20" height="20" viewBox="0 0 20 20" fill="none" xmlns="http://www.w3.org/2000/svg">
    <path
      d="M10 0C4.48625 0 0 4.48625 0 10C0 15.5138 4.48625 20 10 20C15.5138 20 20 15.5138 20 10C20 4.48625 15.5138 0 10 0ZM14.5875 14.435C14.465 14.6088 14.2725 14.7013 14.0763 14.7013C13.9512 14.7013 13.8263 14.665 13.7175 14.5875C11.3737 12.94 7.475 12.8488 4.8425 13.4625C4.50875 13.5413 4.17 13.3313 4.0925 12.995C4.015 12.6587 4.2225 12.3225 4.56 12.2437C7.45375 11.5738 11.7788 11.6962 14.435 13.565C14.7175 13.7638 14.785 14.1525 14.5875 14.435ZM15.8075 11.9963C15.685 12.1663 15.4937 12.2563 15.3 12.2563C15.1725 12.2563 15.0463 12.2188 14.935 12.1388C12.2163 10.1875 8.87625 9.7025 4.41875 10.6125C4.0825 10.6788 3.75 10.4638 3.68125 10.125C3.61125 9.7875 3.83 9.45625 4.1675 9.3875C8.98875 8.40375 12.6413 8.95375 15.6637 11.1225C15.9438 11.325 16.0087 11.715 15.8075 11.9963ZM17.04 8.72125C16.9188 8.9 16.7213 8.995 16.5225 8.995C16.4013 8.995 16.2787 8.96 16.1712 8.8875C12.725 6.54875 7.48625 6.5375 4.095 7.7375C3.77 7.85 3.4125 7.68125 3.2975 7.355C3.1825 7.03 3.3525 6.6725 3.67875 6.5575C7.3675 5.25375 13.0837 5.28125 16.875 7.8525C17.16 8.04625 17.2325 8.435 17.04 8.72125Z"
      fill="#1D3449"
    />
  </svg>