<svg width="20" height="20" viewBox="0 0 20 20" fill="none" xmlns="http://www.w3.org/2000/svg">
<path d="M15.8984 0H4.10156C1.83996 0 0 1.83996 0 4.10156V15.8984C0 18.16 1.83996 20 4.10156 20H15.8984C18.16 20 20 18.16 20 15.8984V4.10156C20 1.83996 18.16 0 15.8984 0ZM14.9609 12.3438V12.9297V13.9062C14.9609 14.7678 14.26 15.4688 13.3984 15.4688H12.4219C11.5603 15.4688 10.8594 14.7678 10.8594 13.9062C10.8594 13.0447 11.5603 12.3438 12.4219 12.3438H13.7891V6.59402L8.16406 7.56387V13.5156V14.1016V15.0781C8.16406 15.9397 7.46313 16.6406 6.60156 16.6406H5.625C4.76344 16.6406 4.0625 15.9397 4.0625 15.0781C4.0625 14.2166 4.76344 13.5156 5.625 13.5156H6.99219V4.62363L14.9609 3.24973V12.3438Z" fill="#1D3449"/>
</svg>
