<svg width="96" height="96" viewBox="0 0 96 96" fill="none" xmlns="http://www.w3.org/2000/svg">
<rect width="96" height="96" rx="48" fill="white"/>
<path d="M44.5813 26.5615L26.1114 34.204C25.0843 34.6291 25.0949 36.088 26.1285 36.4977L44.6756 43.8527C46.3054 44.499 48.1202 44.499 49.7496 43.8527L68.297 36.4977C69.3303 36.088 69.3412 34.6291 68.3138 34.204L49.8442 26.5615C48.1591 25.8642 46.2662 25.8642 44.5813 26.5615Z" fill="#FCB400"/>
<path d="M48.8582 47.8691V66.2429C48.8582 67.1168 49.7394 67.7152 50.5517 67.3932L71.2189 59.3712C71.6907 59.1841 72.0001 58.7282 72.0001 58.2208V39.847C72.0001 38.9731 71.1189 38.3747 70.3066 38.6967L49.6394 46.7187C49.1679 46.9058 48.8582 47.3617 48.8582 47.8691Z" fill="#18BFFF"/>
<path d="M44.0322 48.8171L37.8986 51.7786L37.2758 52.0796L24.3283 58.2835C23.5075 58.6794 22.46 58.0813 22.46 57.1696V39.9242C22.46 39.5944 22.6291 39.3096 22.8559 39.0951C22.9506 39.0002 23.0578 38.9221 23.1693 38.8602C23.4787 38.6745 23.92 38.625 24.2952 38.7734L43.9291 46.5526C44.9271 46.9486 45.0055 48.347 44.0322 48.8171Z" fill="#F82B60"/>
<path d="M44.032 48.8171L37.8984 51.7786L22.8557 39.0951C22.9504 39.0002 23.0576 38.9221 23.1691 38.8602C23.4785 38.6745 23.9198 38.625 24.295 38.7734L43.9289 46.5526C44.9269 46.9486 45.0053 48.347 44.032 48.8171Z" fill="black" fill-opacity="0.25"/>
</svg>
