<svg width="96" height="96" viewBox="0 0 96 96" fill="none" xmlns="http://www.w3.org/2000/svg">
<rect width="96" height="96" rx="48" fill="white"/>
<g clip-path="url(#clip0)">
<path d="M26.2186 65.9249H67.9711C69.59 65.9249 70.9534 64.6177 70.9534 62.9733V33.1202C70.9534 31.5179 69.6326 30.1687 67.9711 30.1687H26.2186C24.5996 30.1687 23.2363 31.4758 23.2363 33.1202V62.9733C23.2363 64.6177 24.557 65.9249 26.2186 65.9249Z" fill="#E3E3E3"/>
<path opacity="0.1" d="M64.9889 65.9248L47.1376 51.7151L47.0098 50.9562L65.4149 37.8427L65.4575 65.2924L64.9889 65.9248Z" fill="#231F20"/>
<path d="M67.9711 65.9248C69.6326 65.9248 70.9534 64.6177 70.9534 62.9733V33.0781C70.9534 31.4336 69.6326 31.1385 67.9711 31.1385C66.3095 31.1385 64.9887 31.4758 64.9887 33.0781V65.9248H67.9711Z" fill="#D54B3D"/>
<path d="M67.9711 31.5601C65.8408 31.5601 65.4148 32.1926 65.4148 33.0781V65.5032H67.9711C69.377 65.5032 70.5273 64.3647 70.5273 62.9733V33.0781C70.5273 32.1504 70.1013 31.5601 67.9711 31.5601ZM67.9711 31.1385C69.6326 31.1385 70.9534 31.4758 70.9534 33.0781V62.9733C70.9534 64.6177 69.6326 65.9248 67.9711 65.9248H64.9887V33.0781C64.9887 31.4336 66.3095 31.1385 67.9711 31.1385Z" fill="#D72B27"/>
<path d="M26.2186 65.9248H29.2009V32.9937C29.2009 31.3493 27.8802 31.1385 26.2186 31.1385C24.557 31.1385 23.2363 31.3493 23.2363 32.9937V63.0154C23.2363 64.6177 24.557 65.9248 26.2186 65.9248Z" fill="#D54B3D"/>
<path d="M26.2186 31.5601C24.3014 31.5601 23.6623 31.9396 23.6623 32.9937V63.0155C23.6623 64.4069 24.8127 65.5454 26.2186 65.5454H28.7749V32.9937C28.7749 31.8974 28.1358 31.5601 26.2186 31.5601ZM26.2186 31.1385C27.8802 31.1385 29.2009 31.3493 29.2009 32.9937V65.967H26.2186C24.557 65.967 23.2363 64.6599 23.2363 63.0155V32.9937C23.2363 31.3493 24.557 31.1385 26.2186 31.1385Z" fill="#D72B27"/>
<path d="M39.0001 65.9248L70.7039 34.3042L69.0363 34.9755L46.9671 50.7032L23.2364 33.4813L23.2364 63.0154C23.2364 64.6177 24.5571 65.9248 26.2187 65.9248H39.0001Z" fill="url(#paint0_linear)"/>
<path d="M47.1373 51.716L69.6751 35.5245C70.9958 34.5547 71.3792 32.6994 70.3993 31.3923C69.4194 30.0852 67.5022 29.79 66.1389 30.7598L47.0947 44.4635L27.9226 30.5912C26.6019 29.6214 24.7273 29.9165 23.7474 31.2658C22.7675 32.5729 23.0657 34.4282 24.429 35.398L47.1373 51.716Z" fill="#D54B3D"/>
<path d="M26.219 30.4217C25.4095 30.4217 24.6426 30.8011 24.1313 31.4758C23.3218 32.6143 23.5775 34.1744 24.6852 35.0177L47.1378 51.2092L69.42 35.1863C70.5703 34.343 70.8685 32.7407 70.059 31.6444C69.5904 31.012 68.7809 30.5903 67.9288 30.5903C67.3749 30.5903 66.8211 30.759 66.395 31.0963L47.3934 44.7579L47.1378 44.9265L46.8822 44.7579L27.7527 30.8855C27.2841 30.5903 26.7728 30.4217 26.219 30.4217ZM26.219 30C26.8154 30 27.4545 30.1687 27.9657 30.5481L47.1378 44.4205L66.182 30.7168C66.6933 30.3373 67.3323 30.1687 67.9714 30.1687C68.9087 30.1687 69.846 30.5903 70.4425 31.3915C71.3798 32.6986 70.9963 34.5539 69.6756 35.5237L47.1378 51.7573L24.4722 35.3972C23.1514 34.4274 22.8532 32.6143 23.7905 31.265C24.387 30.4217 25.2817 30 26.219 30Z" fill="#D72B27"/>
</g>
<defs>
<linearGradient id="paint0_linear" x1="70.702" y1="49.7023" x2="23.2211" y2="49.7023" gradientUnits="userSpaceOnUse">
<stop stop-opacity="0.1"/>
<stop offset="1" stop-opacity="0.2"/>
</linearGradient>
<clipPath id="clip0">
<rect width="48" height="36" fill="white" transform="matrix(-1 0 0 1 71 30)"/>
</clipPath>
</defs>
</svg>
