<svg width="97" height="96" viewBox="0 0 97 96" fill="none" xmlns="http://www.w3.org/2000/svg">
<rect width="96" height="96" rx="48" fill="white"/>
<rect x="1" width="96" height="96" rx="48" fill="white"/>
<path d="M31.5338 47.8274C31.1381 47.8075 30.7413 47.8344 30.3518 47.9074C29.7021 48.0122 29.0797 48.2453 28.5209 48.5931C27.9621 48.9409 27.4781 49.3964 27.0972 49.9331C26.7162 50.4697 26.4458 51.0769 26.3018 51.7191C26.1578 52.3613 26.1431 53.0258 26.2584 53.6738C26.5416 56.3461 29.3907 58.5996 32.0282 58.6667C32.2989 58.6736 32.5697 58.6556 32.8371 58.613C35.6912 58.151 36.4384 55.2099 35.968 52.321C35.4366 49.0592 33.1118 47.9093 31.5338 47.8274ZM34.3304 55.5554C34.2099 55.7358 34.0427 55.88 33.8466 55.9727C33.6505 56.0654 33.4329 56.1031 33.217 56.0817C32.8376 56.0516 32.4837 55.8785 32.2272 55.5973C31.9706 55.3161 31.8305 54.948 31.8352 54.5674C31.8286 54.0602 31.9264 53.5571 32.1225 53.0893C32.2449 52.7921 32.2567 52.4608 32.1557 52.1557C32.0546 51.8506 31.8474 51.5919 31.5718 51.4265C31.2331 51.2166 30.8268 51.1446 30.4366 51.2255C30.0587 51.2981 29.7247 51.517 29.5075 51.8346C29.3608 52.0717 29.2463 52.3272 29.167 52.5945C29.1516 52.6413 29.1393 52.678 29.13 52.7019C29.0007 53.0317 28.7943 53.1281 28.6548 53.1102C28.6034 53.1008 28.5558 53.0768 28.5177 53.0411C28.4795 53.0054 28.4525 52.9594 28.4398 52.9088C28.3674 52.4685 28.4013 52.0173 28.5387 51.5928C28.6761 51.1683 28.9129 50.7828 29.2295 50.4685C29.5053 50.1933 29.8402 49.9847 30.2087 49.8585C30.5773 49.7324 30.9698 49.692 31.3563 49.7405C31.7623 49.7893 32.1502 49.9361 32.4866 50.1684C32.8231 50.4006 33.098 50.7112 33.2875 51.0735C33.4698 51.5094 33.5436 51.9831 33.5024 52.4539C33.4613 52.9246 33.3064 53.3784 33.0511 53.776C33.0188 53.8448 32.9893 53.9078 32.9641 53.9641C32.8723 54.1199 32.8216 54.2965 32.8168 54.4773C32.812 54.658 32.8533 54.837 32.9368 54.9975C33.0102 55.0953 33.1061 55.174 33.2163 55.2271C33.3266 55.2801 33.4479 55.3059 33.5702 55.3022C33.6869 55.3007 33.8031 55.2852 33.9161 55.2561C34.0627 55.2237 34.2143 55.1903 34.3066 55.3001C34.3372 55.3346 34.356 55.3779 34.3603 55.4238C34.3646 55.4698 34.3541 55.5159 34.3304 55.5554V55.5554Z" fill="white"/>
<path d="M68.0061 61.0355C68.6016 59.5244 68.9459 57.9261 69.0253 56.3039C69.0253 54.3094 67.896 53.4827 67.177 53.4827C67.155 53.4057 67.0127 52.8857 66.8169 52.2596C66.7049 51.8965 66.572 51.5403 66.4188 51.1926C67.0072 50.3797 67.2563 49.3696 67.1132 48.3763C66.9955 47.6104 66.6313 46.9037 66.0758 46.3633C65.0216 45.4684 63.7635 44.8462 62.4124 44.5515C62.2089 44.4946 61.5379 44.3107 61.479 44.2927C61.4744 44.2543 61.43 42.0956 61.3896 41.1688C61.3721 40.2395 61.2336 39.3164 60.9776 38.4229C60.6593 37.1407 60.0014 35.9679 59.073 35.0279C61.3974 32.6219 62.8485 29.9715 62.845 27.6978C62.8384 23.3251 57.4605 22.0019 50.8334 24.7422C50.8261 24.7453 49.439 25.3325 49.4291 25.3376C49.423 25.3314 46.8905 22.8505 46.8525 22.8171C39.2967 16.2361 15.6721 42.4577 23.2253 48.8262L24.876 50.2225C24.4306 51.4161 24.2733 52.698 24.417 53.9639C24.6408 55.8055 25.5511 57.4949 26.9661 58.6946C28.3397 59.9412 30.1142 60.6546 31.9683 60.7058C34.9076 67.4696 41.6234 71.6188 49.4978 71.8524C57.9447 72.1029 65.0352 68.1451 68.0061 61.0355ZM69.7399 53.031C70.4635 53.9648 70.8359 55.1233 70.7918 56.3039C70.7158 58.1454 70.3307 59.9609 69.6527 61.6747L69.6367 61.7149C68.1039 65.4007 65.4278 68.4967 62.0027 70.5467C58.4377 72.6202 54.376 73.6853 50.2522 73.6278H50.2514C49.9845 73.6278 49.7135 73.6236 49.4455 73.6157C45.3756 73.5307 41.4025 72.358 37.9388 70.2192C34.8899 68.3086 32.4226 65.5993 30.8048 62.3855C28.9408 62.096 27.2007 61.2727 25.7947 60.0152C24.0466 58.5218 22.9268 56.4235 22.6593 54.1399C22.54 53.0304 22.6044 51.9089 22.8496 50.8203L22.0833 50.1723C21.463 49.6365 20.959 48.9795 20.6021 48.2417C20.2453 47.5038 20.0432 46.7008 20.0083 45.8819C19.9455 44.1821 20.2392 42.488 20.8707 40.9086C22.4438 36.6139 26.0626 31.4999 30.5517 27.2284C32.555 25.2845 34.7772 23.5797 37.1738 22.1485C39.1727 20.87 41.4684 20.1306 43.8377 20.0021C45.3658 19.9622 46.8542 20.4917 48.0137 21.4877C48.0799 21.5455 49.072 22.5157 49.8245 23.2528C50.0133 23.1731 50.1491 23.1158 50.1531 23.1143C52.3792 22.1447 54.7715 21.6138 57.1988 21.5507C61.6963 21.5507 64.6059 23.9625 64.6116 27.6951C64.6151 29.9982 63.4843 32.5801 61.3997 35.0795C61.9669 35.9564 62.3959 36.9153 62.6718 37.9226C62.968 38.9538 63.1301 40.0187 63.1544 41.0913C63.1746 41.5527 63.1953 42.2931 63.212 42.9466C64.7499 43.3359 66.1712 44.0906 67.3551 45.1468C68.1577 45.943 68.684 46.9755 68.8569 48.0928C69.0308 49.1957 68.8604 50.3253 68.3689 51.3278C68.4127 51.4534 68.4582 51.5897 68.5035 51.7341C68.5428 51.8601 68.58 51.9815 68.6147 52.0968C69.0476 52.3311 69.43 52.6486 69.74 53.031H69.7399Z" fill="white"/>
<path d="M64.3856 50.8472C64.672 50.578 64.8955 50.2488 65.0399 49.8831C65.1843 49.5175 65.2461 49.1244 65.2209 48.7321C65.1636 48.3367 64.9791 47.9707 64.6953 47.6894C63.8627 46.9982 62.872 46.5239 61.8116 46.3085C61.3272 46.1711 60.9986 46.0831 60.6445 45.9653C60.0149 45.7557 59.7037 45.587 59.6333 44.3901C59.6025 43.8666 59.5122 42.043 59.4797 41.2895C59.4223 39.969 59.265 38.1642 58.1575 37.419C57.8758 37.2321 57.5481 37.1263 57.2104 37.113C57.0213 37.1014 56.8315 37.1202 56.6484 37.1686C56.0862 37.2999 55.5746 37.5923 55.1761 38.0099C54.6601 38.4811 54.0519 38.8398 53.3899 39.0632C52.7279 39.2866 52.0267 39.37 51.3308 39.3079C50.5556 39.275 49.7342 39.153 48.7925 39.0966C48.6092 39.0857 48.4255 39.0743 48.242 39.0646C47.0252 39.1005 45.8618 39.5726 44.9641 40.3948C44.0664 41.2171 43.4941 42.3346 43.3517 43.5436C42.8126 47.2936 45.4986 49.2314 46.274 50.3686C46.3939 50.5137 46.4682 50.6911 46.4874 50.8783C46.4673 51.086 46.3686 51.2782 46.2114 51.4155L46.2116 51.4166C45.1378 52.6254 44.3839 54.0839 44.0188 55.659C43.6536 57.2341 43.6888 58.8756 44.1212 60.4336C44.2237 60.8078 44.3551 61.1734 44.5142 61.5273C46.4741 66.1578 52.5542 68.3143 58.4942 66.3531C59.2723 66.0961 60.0272 65.7736 60.7508 65.3891C62.0532 64.7381 63.2246 63.853 64.2066 62.7781C65.7386 61.2242 66.7449 59.229 67.0837 57.0733C67.2626 55.8799 67.0006 55.418 66.6439 55.1958C66.3919 55.0541 66.1 55.0003 65.8141 55.0427C65.663 54.1059 65.3976 53.1911 65.0239 52.3187L64.3856 50.8472Z" fill="white"/>
<path d="M54.6511 32.9629C54.7469 32.9849 54.8078 32.8194 54.7221 32.7713C53.303 32.0359 51.7378 31.6263 50.1404 31.5723C50.1251 31.5721 50.1101 31.5676 50.0971 31.5594C50.0841 31.5511 50.0737 31.5395 50.0669 31.5257C50.0601 31.5119 50.0573 31.4965 50.0587 31.4813C50.0601 31.466 50.0657 31.4514 50.0749 31.439C50.3232 31.1145 50.6131 30.824 50.9371 30.575C50.9516 30.5638 50.9621 30.5482 50.9671 30.5305C50.9721 30.5128 50.9713 30.494 50.9649 30.4768C50.9584 30.4596 50.9466 30.4449 50.9312 30.4349C50.9158 30.4249 50.8976 30.4201 50.8793 30.4212C48.9234 30.6133 47.0431 31.2762 45.3992 32.3531C45.3852 32.3626 45.3687 32.3676 45.3518 32.3676C45.3349 32.3675 45.3183 32.3624 45.3044 32.3529C45.2904 32.3434 45.2796 32.3299 45.2734 32.3141C45.2672 32.2984 45.2658 32.2812 45.2695 32.2647C45.402 31.7708 45.5968 31.2959 45.8494 30.8514C45.8578 30.8362 45.861 30.8187 45.8586 30.8014C45.8562 30.7842 45.8483 30.7682 45.8362 30.7558C45.824 30.7434 45.8082 30.7352 45.791 30.7325C45.7739 30.7297 45.7563 30.7326 45.7408 30.7406C43.367 32.0444 41.2512 33.7709 39.4977 35.835C39.484 35.8507 39.4766 35.8709 39.4768 35.8918C39.477 35.9126 39.4849 35.9327 39.4989 35.9481C39.513 35.9635 39.5322 35.9732 39.5529 35.9754C39.5736 35.9776 39.5945 35.9721 39.6114 35.9599C41.6434 34.54 43.9326 33.5295 46.351 32.9851C49.081 32.3553 51.9177 32.3478 54.651 32.9629" fill="white"/>
<path d="M47.6595 26.2648C47.6595 26.2648 45.603 23.8839 44.9822 23.7083C41.163 22.6777 32.9128 28.3593 27.6451 35.8658C25.5137 38.903 22.4624 44.2815 23.9214 47.0478C24.44 47.6689 25.0246 48.2317 25.6649 48.7264C26.6424 47.3562 28.1137 46.4189 29.7686 46.112C31.8456 40.3053 35.4915 35.1881 40.3014 31.3285C42.6095 29.4395 45.0707 27.7458 47.6595 26.2648" fill="white"/>
<path d="M34.1922 55.4522C34.2218 55.488 34.2399 55.532 34.244 55.5784C34.2481 55.6247 34.2381 55.6712 34.2154 55.7118C34.1045 55.8917 33.9456 56.037 33.7565 56.1315C33.5675 56.2259 33.3558 56.2657 33.1454 56.2463C32.7703 56.2058 32.4246 56.0246 32.1781 55.7391C31.9316 55.4536 31.8027 55.0852 31.8174 54.7082C31.811 54.1946 31.9048 53.6846 32.0935 53.2068C32.2125 52.9075 32.225 52.5762 32.1286 52.2687C32.0323 51.9613 31.8331 51.6964 31.5645 51.5185C31.4055 51.4133 31.227 51.341 31.0396 51.3059C30.8522 51.2708 30.6597 51.2736 30.4735 51.3142C30.2909 51.3526 30.118 51.4271 29.9647 51.5333C29.8114 51.6395 29.6809 51.7753 29.5809 51.9327C29.4394 52.175 29.3294 52.4343 29.2535 52.7044C29.2388 52.7519 29.227 52.7893 29.2181 52.8134C29.0938 53.1487 28.8956 53.2464 28.7613 53.2285C28.6978 53.2197 28.6105 53.1772 28.5546 53.0238C28.4844 52.5801 28.5162 52.1263 28.6478 51.6968C28.7793 51.2673 29.0071 50.8734 29.3137 50.5452C29.5712 50.2687 29.8909 50.0574 30.2463 49.9289C30.6016 49.8004 30.9825 49.7583 31.3573 49.8062C31.7544 49.8608 32.1317 50.013 32.4556 50.2492C32.7794 50.4854 33.0396 50.7982 33.2129 51.1597C33.3884 51.6039 33.4592 52.0826 33.4198 52.5586C33.3805 53.0346 33.232 53.4952 32.986 53.9046C32.9549 53.9742 32.9264 54.038 32.9024 54.0958C32.8139 54.2557 32.7653 54.4346 32.7608 54.6173C32.7562 54.8 32.7958 54.9811 32.8762 55.1452C32.9441 55.2431 33.0352 55.3226 33.1414 55.3765C33.2477 55.4305 33.3656 55.4574 33.4847 55.4546C33.597 55.453 33.7086 55.4372 33.817 55.4076C33.958 55.3746 34.1036 55.3407 34.1922 55.4521L34.1922 55.4522ZM68.9494 56.3199C68.8706 57.9384 68.5286 59.5332 67.9369 61.0417C64.9853 68.1362 57.9412 72.0858 49.5498 71.8358C41.727 71.6028 35.055 67.4622 32.1349 60.7126C30.2915 60.661 28.528 59.9487 27.1658 58.7056C25.7586 57.506 24.8545 55.8207 24.6332 53.9848C24.4904 52.7218 24.6466 51.4429 25.0892 50.2514L23.4493 48.8579C15.9456 42.5028 39.4152 16.3362 46.9218 22.9036C46.9597 22.9367 49.4753 25.4126 49.4816 25.4187C49.4916 25.4136 50.8696 24.8275 50.8766 24.8246C57.4605 22.0899 62.803 23.4103 62.8097 27.7736C62.8132 30.0428 61.3716 32.6877 59.0625 35.0885C59.9854 36.0278 60.6388 37.1979 60.9543 38.4763C61.2089 39.3682 61.3465 40.2893 61.3637 41.2167C61.4038 42.1414 61.4481 44.2957 61.4526 44.334C61.5112 44.3518 62.1778 44.5352 62.3798 44.5922C63.7231 44.8868 64.9731 45.5078 66.0193 46.4004C66.5716 46.9404 66.9334 47.6453 67.0499 48.4089C67.1922 49.3997 66.945 50.407 66.3602 51.2193C66.5123 51.5664 66.6444 51.922 66.7557 52.2842C66.95 52.9091 67.0914 53.4277 67.1132 53.5046C67.8275 53.5046 68.9494 54.3295 68.9494 56.3199L68.9494 56.3199ZM35.7885 52.4269C35.2782 49.114 33.044 47.9465 31.528 47.8632C31.1475 47.843 30.7659 47.8702 30.3921 47.9442C27.6862 48.4917 26.158 50.8005 26.4587 53.8005C26.6777 55.1462 27.3441 56.3787 28.3501 57.2989C29.3561 58.2191 30.6431 58.7731 32.0029 58.8715C32.2631 58.8785 32.5234 58.8602 32.7801 58.8168C35.5226 58.3477 36.2406 55.3607 35.7885 52.4269ZM40.4135 31.3969C42.7055 29.5125 45.1506 27.8223 47.7232 26.3438C47.7232 26.3438 45.6805 23.9681 45.0636 23.793C41.2694 22.7642 33.0731 28.434 27.84 35.9246C25.7226 38.9554 22.6914 44.3228 24.1407 47.0832C24.6555 47.7028 25.2363 48.2644 25.8728 48.7583C26.8417 47.3925 28.3037 46.457 29.9498 46.1495C32.0091 40.3604 35.6307 35.2543 40.4135 31.3969V31.3969ZM48.6598 57.613C48.7604 58.0533 48.978 58.4582 49.2897 58.785C49.6013 59.1119 49.9955 59.3484 50.4305 59.4697C50.8831 59.6384 51.35 59.7656 51.8256 59.8497C57.8273 60.8852 63.4382 57.4432 64.7016 56.5762C64.7964 56.5111 64.859 56.5746 64.7829 56.6895C64.7449 56.7507 64.7036 56.8097 64.6592 56.8665C63.1131 58.8669 58.9566 61.1834 53.5487 61.1826C51.1902 61.1822 48.8328 60.3487 47.9673 59.0681C46.6245 57.0809 47.9008 54.1805 50.1383 54.4828C50.141 54.4832 50.904 54.5699 51.1184 54.5938C54.5966 54.9283 58.1025 54.3655 61.3012 52.9593C64.354 51.5379 65.5072 49.9736 65.3342 48.7073C65.2764 48.314 65.0915 47.9505 64.8079 47.672C63.9731 46.9848 62.9818 46.5139 61.9218 46.3008C61.4369 46.1642 61.1079 46.0771 60.7535 45.96C60.1233 45.7518 59.8118 45.5842 59.7412 44.3957C59.7105 43.8759 59.6202 42.0651 59.5874 41.3167C59.5298 40.0055 59.3728 38.2132 58.2639 37.4732C57.9816 37.2874 57.6539 37.1823 57.3162 37.1693C57.1268 37.1578 56.9369 37.1765 56.7534 37.2246C56.1917 37.3546 55.6798 37.6449 55.2799 38.0601C54.7617 38.5285 54.1523 38.8848 53.4899 39.1065C52.8276 39.3283 52.1265 39.4108 51.4308 39.3489C50.655 39.3165 49.8328 39.1952 48.8903 39.1391C48.707 39.1283 48.5229 39.1169 48.3392 39.1075C47.1257 39.1393 45.964 39.6059 45.0656 40.4222C44.1672 41.2385 43.5918 42.3503 43.4442 43.5552C42.9046 47.2791 45.5932 49.2034 46.3694 50.3326C46.4893 50.4764 46.5637 50.6527 46.5831 50.8389C46.5626 51.0455 46.4637 51.2363 46.3067 51.3722V51.3734C45.2331 52.5695 44.4785 54.0171 44.1128 55.5822C43.7471 57.1474 43.7821 58.7795 44.2145 60.3275C44.3172 60.6992 44.4487 61.0624 44.6078 61.4136C46.5696 66.012 52.6554 68.1532 58.601 66.2054C59.3795 65.9505 60.1351 65.6305 60.8599 65.2487C62.1618 64.6033 63.3343 63.7244 64.3189 62.6556C65.8502 61.1167 66.8578 59.1346 67.1988 56.9905C67.3778 55.8052 67.1158 55.3469 66.7585 55.1262C66.5059 54.9855 66.214 54.932 65.9279 54.974C65.7765 54.0432 65.5109 53.1347 65.1371 52.2689C63.439 53.5502 61.5194 54.5078 59.4745 55.0938C57.0141 55.789 54.4545 56.0666 51.9022 55.9151C50.2603 55.782 49.174 55.3012 48.7654 56.6331C51.2491 57.4636 53.8862 57.7327 56.4864 57.4208C56.5047 57.4189 56.5232 57.4207 56.5408 57.426C56.5585 57.4313 56.5748 57.44 56.5891 57.4516C56.6033 57.4633 56.6151 57.4776 56.6238 57.4938C56.6325 57.5101 56.6379 57.5278 56.6397 57.5461C56.6424 57.5769 56.6355 57.6077 56.62 57.6344C56.6045 57.6611 56.5811 57.6823 56.553 57.6951C56.553 57.6951 53.5032 59.1154 48.6598 57.613V57.613ZM39.728 36.0185C41.7452 34.6023 44.0196 33.594 46.4235 33.0501C49.1354 32.4217 51.9541 32.4141 54.6693 33.0279C54.7643 33.0497 54.825 32.8846 54.7399 32.8369C53.3309 32.1033 51.7756 31.6944 50.188 31.6401C50.1727 31.6399 50.1578 31.6354 50.1449 31.6272C50.132 31.619 50.1216 31.6074 50.1149 31.5936C50.1081 31.5799 50.1053 31.5646 50.1068 31.5493C50.1082 31.5341 50.1138 31.5195 50.1229 31.5073C50.3695 31.1836 50.6576 30.8937 50.9797 30.645C50.9941 30.6338 51.0046 30.6182 51.0096 30.6006C51.0145 30.583 51.0137 30.5642 51.0073 30.5471C51.0009 30.5299 50.9892 30.5153 50.9738 30.5053C50.9585 30.4953 50.9404 30.4904 50.9221 30.4914C48.978 30.6836 47.1097 31.3452 45.4778 32.4194C45.4639 32.4288 45.4474 32.4339 45.4306 32.4338C45.4138 32.4338 45.3973 32.4287 45.3834 32.4191C45.3695 32.4096 45.3588 32.3962 45.3527 32.3805C45.3466 32.3648 45.3453 32.3476 45.3491 32.3312C45.4805 31.8386 45.674 31.3648 45.9251 30.921C45.9334 30.9058 45.9366 30.8884 45.9343 30.8712C45.932 30.8541 45.9242 30.8381 45.9121 30.8257C45.9 30.8133 45.8843 30.8051 45.8672 30.8023C45.8501 30.7995 45.8326 30.8023 45.8172 30.8102C43.4573 32.1128 41.3554 33.8358 39.615 35.8943C39.6014 35.9099 39.594 35.93 39.5942 35.9507C39.5944 35.9714 39.6022 35.9914 39.6162 36.0067C39.6301 36.022 39.6492 36.0317 39.6698 36.0339C39.6904 36.0361 39.7111 36.0306 39.728 36.0185V36.0185ZM55.5329 48.6591C55.6971 48.7631 55.8939 48.8029 56.0857 48.7711C56.2775 48.7392 56.4509 48.6378 56.5727 48.4863C56.724 48.1933 56.5042 47.7959 56.0815 47.5985C55.9172 47.4945 55.7203 47.4547 55.5285 47.4866C55.3367 47.5186 55.1634 47.62 55.0417 47.7717C54.8901 48.0645 55.1101 48.4619 55.5329 48.6591ZM56.8295 43.9077C56.9309 44.4352 57.1497 44.9332 57.4697 45.3647C57.8003 45.324 58.1347 45.324 58.4653 45.3647C58.6586 44.7856 58.6755 44.1622 58.5139 43.5735C58.275 42.4873 57.9516 41.8299 57.2834 41.9321C56.6154 42.0345 56.5908 42.8215 56.8295 43.9077ZM58.251 46.4029C58.0825 46.3545 57.903 46.3602 57.7379 46.419C57.5728 46.4779 57.4302 46.587 57.3303 46.7311C57.2304 46.8752 57.1781 47.0469 57.1809 47.2222C57.1836 47.3975 57.2411 47.5675 57.3455 47.7084C57.4498 47.8493 57.5956 47.9539 57.7625 48.0077C57.9294 48.0614 58.1089 48.0615 58.2758 48.0079C58.4428 47.9544 58.5887 47.8499 58.6932 47.7091C58.7977 47.5683 58.8554 47.3984 58.8583 47.2231C58.8826 47.0344 58.8329 46.8437 58.7197 46.6908C58.6065 46.5379 58.4385 46.4347 58.251 46.4029V46.4029Z" fill="black"/>
<path d="M47.1574 46.3059C47.0508 46.2909 47.0054 46.2453 46.992 46.1849C46.9506 45.9975 47.2388 45.6891 47.5426 45.4665C47.986 45.1423 48.5053 44.9377 49.0506 44.8722C49.5959 44.8067 50.1489 44.8826 50.6564 45.0927C51.1306 45.2883 51.5384 45.6164 51.8308 46.0379C51.9394 46.2151 51.9604 46.3525 51.8902 46.4245C51.7808 46.5399 51.5018 46.4077 51.0476 46.2085C50.502 45.9407 49.8991 45.8109 49.2916 45.8303C48.5719 45.9487 47.8593 46.1074 47.1574 46.3059V46.3059ZM51.6844 47.2379C51.4882 47.0315 51.2438 46.8771 50.9732 46.7884C50.7027 46.6997 50.4143 46.6795 50.134 46.7297C49.7207 46.7736 49.329 46.9368 49.0068 47.1995C48.8567 47.3072 48.7535 47.4684 48.7184 47.6499C48.7176 47.67 48.7212 47.6902 48.729 47.7088C48.7368 47.7274 48.7487 47.7441 48.7636 47.7577C48.7902 47.7818 48.825 47.7951 48.861 47.7947C49.0097 47.7728 49.1551 47.7325 49.2938 47.6747C49.9011 47.4458 50.5571 47.3777 51.1984 47.4769C51.4956 47.5103 51.636 47.5289 51.7012 47.4269C51.7179 47.3974 51.7253 47.3635 51.7223 47.3297C51.7193 47.296 51.7061 47.2639 51.6844 47.2379V47.2379Z" fill="black"/>
<path d="M50.8429 47.5102C51.0304 46.8428 51.0411 46.138 50.8741 45.4652C50.6323 44.3773 50.2667 43.7557 49.5892 43.8581C48.9116 43.9604 48.8941 44.8372 49.1124 45.9296C49.2129 46.4302 49.4085 46.9069 49.6886 47.3338C50.2277 48.0861 50.5933 47.8914 50.8419 47.5102L50.8429 47.5102Z" fill="black"/>
</svg>
