<svg width="96" height="96" viewBox="0 0 96 96" fill="none" xmlns="http://www.w3.org/2000/svg">
<rect width="96" height="96" rx="48" fill="white"/>
<path d="M52.8494 46.378C52.8494 43.478 55.2453 41.1439 58.222 41.1439C61.1987 41.1439 63.5946 43.478 63.5946 46.378V58.7561C63.5946 60.7366 65.2644 62.2927 67.2247 62.2927C69.2576 62.2927 70.8549 60.6659 70.8549 58.7561V46.378C70.9275 39.5171 65.2644 34 58.222 34C54.737 34 51.5425 35.4146 49.2192 37.678C51.4699 39.9415 52.8494 42.9829 52.8494 46.378Z" fill="#20D1CC"/>
<path d="M45.5892 46.378C45.5892 42.9829 46.9687 39.9415 49.2193 37.678C46.8961 35.4146 43.7015 34 40.2166 34C36.6591 34 33.4646 35.4146 31.2139 37.678C33.4646 39.8707 34.844 42.9829 34.844 46.3073C34.844 43.4073 37.2399 41.0732 40.2166 41.0732C43.1933 41.1439 45.5892 43.478 45.5892 46.378Z" fill="#05D0E0"/>
<path d="M52.8494 58.7561V46.378C52.8494 42.9829 51.4699 39.9415 49.2192 37.678C46.9686 39.9415 45.5891 42.9829 45.5891 46.378V58.7561C45.5891 59.7463 46.0247 60.5951 46.6782 61.3024C47.3316 61.939 48.2754 62.3634 49.2919 62.3634C51.2521 62.2927 52.8494 60.6658 52.8494 58.7561Z" fill="#01A9B2"/>
<path d="M22.1384 34C20.1056 34 18.5083 35.6268 18.5083 37.5366C18.5083 39.5171 20.1782 41.0732 22.1384 41.0732C25.1151 41.0732 27.511 43.4073 27.511 46.3073C27.511 42.9122 28.8905 39.8707 31.1412 37.678C28.8905 35.4146 25.696 34 22.1384 34Z" fill="#0282C9"/>
<path d="M27.511 46.3073V58.6854C27.511 60.6659 29.1808 62.222 31.1411 62.222C31.7945 62.222 32.3754 62.0805 32.8836 61.7976C34.0452 61.161 34.7713 60.0293 34.7713 58.6854V46.378C34.7713 42.9829 33.3918 39.9415 31.1411 37.7488C28.8904 39.9415 27.511 42.9829 27.511 46.3073Z" fill="#016BB1"/>
<path d="M22.1384 41.0732C24.1433 41.0732 25.7686 39.4898 25.7686 37.5366C25.7686 35.5834 24.1433 34 22.1384 34C20.1336 34 18.5083 35.5834 18.5083 37.5366C18.5083 39.4898 20.1336 41.0732 22.1384 41.0732Z" fill="#06429E"/>
<path d="M31.1411 62.2927C33.146 62.2927 34.7713 60.7093 34.7713 58.7561C34.7713 56.8029 33.146 55.2195 31.1411 55.2195C29.1363 55.2195 27.511 56.8029 27.511 58.7561C27.511 60.7093 29.1363 62.2927 31.1411 62.2927Z" fill="#01569A"/>
<path d="M49.2192 62.2927C51.2241 62.2927 52.8494 60.7093 52.8494 58.7561C52.8494 56.8029 51.2241 55.2195 49.2192 55.2195C47.2144 55.2195 45.5891 56.8029 45.5891 58.7561C45.5891 60.7093 47.2144 62.2927 49.2192 62.2927Z" fill="#008C9D"/>
<path d="M67.2974 62.2927C69.3022 62.2927 70.9275 60.7093 70.9275 58.7561C70.9275 56.8029 69.3022 55.2195 67.2974 55.2195C65.2925 55.2195 63.6672 56.8029 63.6672 58.7561C63.6672 60.7093 65.2925 62.2927 67.2974 62.2927Z" fill="#03ABA3"/>
</svg>
