<svg width="96" height="225" viewBox="0 0 96 225" fill="none" xmlns="http://www.w3.org/2000/svg">
<rect width="96" height="96" rx="48" fill="white"/>
<path d="M47.7923 76.4152C63.3709 76.4152 75.9999 63.7862 75.9999 48.2076C75.9999 32.629 63.3709 20 47.7923 20C32.2137 20 19.5847 32.629 19.5847 48.2076C19.5847 63.7862 32.2137 76.4152 47.7923 76.4152Z" fill="#2CA01C"/>
<path d="M27.4177 48.207C27.4177 54.2649 32.3287 59.1769 38.3866 59.1769H39.9538V55.1021H38.3866C34.5848 55.1021 31.4914 52.0078 31.4914 48.207C31.4914 44.4045 34.5848 41.3118 38.3866 41.3118H42.1526V62.6236C42.1526 64.8736 43.9771 66.6981 46.2271 66.6981V37.2372H38.3866C32.3287 37.2372 27.4177 42.1491 27.4177 48.207ZM57.1978 37.239H55.6307V41.3136H57.1978C60.9995 41.3136 64.0931 44.4063 64.0922 48.2088C64.0922 52.0114 60.9995 55.1039 57.1977 55.1039H53.4319V33.7905C53.4319 31.5403 51.6074 29.7175 49.3574 29.7175V59.1769H57.1978C63.2558 59.1769 68.1666 54.2667 68.1666 48.2088C68.1666 42.1491 63.2558 37.239 57.1978 37.239V37.239Z" fill="white"/>
<rect y="129" width="96" height="96" rx="48" fill="white"/>
<path d="M52.8494 175.378C52.8494 172.478 55.2453 170.144 58.222 170.144C61.1987 170.144 63.5946 172.478 63.5946 175.378V187.756C63.5946 189.737 65.2644 191.293 67.2247 191.293C69.2576 191.293 70.8549 189.666 70.8549 187.756V175.378C70.9275 168.517 65.2644 163 58.222 163C54.737 163 51.5425 164.415 49.2192 166.678C51.4699 168.941 52.8494 171.983 52.8494 175.378Z" fill="#20D1CC"/>
<path d="M45.5892 175.378C45.5892 171.983 46.9687 168.941 49.2193 166.678C46.8961 164.415 43.7015 163 40.2166 163C36.6591 163 33.4646 164.415 31.2139 166.678C33.4646 168.871 34.844 171.983 34.844 175.307C34.844 172.407 37.2399 170.073 40.2166 170.073C43.1933 170.144 45.5892 172.478 45.5892 175.378Z" fill="#05D0E0"/>
<path d="M52.8494 187.756V175.378C52.8494 171.983 51.4699 168.941 49.2192 166.678C46.9686 168.941 45.5891 171.983 45.5891 175.378V187.756C45.5891 188.746 46.0247 189.595 46.6782 190.302C47.3316 190.939 48.2754 191.363 49.2919 191.363C51.2521 191.293 52.8494 189.666 52.8494 187.756Z" fill="#01A9B2"/>
<path d="M22.1384 163C20.1056 163 18.5083 164.627 18.5083 166.537C18.5083 168.517 20.1782 170.073 22.1384 170.073C25.1151 170.073 27.511 172.407 27.511 175.307C27.511 171.912 28.8905 168.871 31.1412 166.678C28.8905 164.415 25.696 163 22.1384 163Z" fill="#0282C9"/>
<path d="M27.511 175.307V187.685C27.511 189.666 29.1808 191.222 31.1411 191.222C31.7945 191.222 32.3754 191.08 32.8836 190.798C34.0452 190.161 34.7713 189.029 34.7713 187.685V175.378C34.7713 171.983 33.3918 168.941 31.1411 166.749C28.8904 168.941 27.511 171.983 27.511 175.307Z" fill="#016BB1"/>
<path d="M22.1384 170.073C24.1433 170.073 25.7686 168.49 25.7686 166.537C25.7686 164.583 24.1433 163 22.1384 163C20.1336 163 18.5083 164.583 18.5083 166.537C18.5083 168.49 20.1336 170.073 22.1384 170.073Z" fill="#06429E"/>
<path d="M31.1411 191.293C33.146 191.293 34.7713 189.709 34.7713 187.756C34.7713 185.803 33.146 184.219 31.1411 184.219C29.1363 184.219 27.511 185.803 27.511 187.756C27.511 189.709 29.1363 191.293 31.1411 191.293Z" fill="#01569A"/>
<path d="M49.2192 191.293C51.2241 191.293 52.8494 189.709 52.8494 187.756C52.8494 185.803 51.2241 184.219 49.2192 184.219C47.2144 184.219 45.5891 185.803 45.5891 187.756C45.5891 189.709 47.2144 191.293 49.2192 191.293Z" fill="#008C9D"/>
<path d="M67.2974 191.293C69.3022 191.293 70.9275 189.709 70.9275 187.756C70.9275 185.803 69.3022 184.219 67.2974 184.219C65.2925 184.219 63.6672 185.803 63.6672 187.756C63.6672 189.709 65.2925 191.293 67.2974 191.293Z" fill="#03ABA3"/>
</svg>
