<svg width="96" height="96" viewBox="0 0 96 96" fill="none" xmlns="http://www.w3.org/2000/svg">
<rect width="96" height="96" rx="48" fill="white"/>
<path d="M60.9709 32.5664C60.9446 32.33 60.7344 32.2249 60.5768 32.1986C60.4191 32.1723 57.2663 32.1461 57.2663 32.1461C57.2663 32.1461 54.6127 29.5713 54.35 29.3085C54.0873 29.0458 53.5881 29.1246 53.3779 29.1772C53.3779 29.1772 52.8787 29.3348 52.0379 29.5975C51.9066 29.1509 51.6964 28.5992 51.4074 28.0474C50.4615 26.2345 49.0953 25.2887 47.4138 25.2887C47.3087 25.2887 47.1774 25.2887 47.0723 25.315C47.0197 25.2624 46.9672 25.2099 46.9146 25.1311C46.179 24.3429 45.2594 23.975 44.1559 24.0013C42.0015 24.0539 39.8734 25.604 38.1131 28.389C36.8782 30.3332 35.9586 32.7766 35.6959 34.6683C33.2262 35.4302 31.4922 35.9557 31.4659 35.982C30.231 36.3761 30.1785 36.4023 30.0209 37.5846C29.8895 38.4517 26.6316 63.7004 26.6316 63.7004L53.9822 68.4296L65.8315 65.487C65.8315 65.487 60.9972 32.7766 60.9709 32.5664ZM50.6717 30.0179C50.0412 30.2018 49.3318 30.4383 48.5436 30.6747C48.5173 29.5975 48.3859 28.0737 47.8867 26.76C49.542 27.0753 50.3302 28.9144 50.6717 30.0179ZM47.1248 31.1214C45.6798 31.568 44.1297 32.041 42.5533 32.5402C42.9999 30.8587 43.8406 29.1772 44.8653 28.0737C45.2594 27.6533 45.7849 27.2067 46.4154 26.9439C47.0197 28.1788 47.1248 29.9391 47.1248 31.1214V31.1214ZM44.1822 25.4463C44.6814 25.4463 45.1018 25.5514 45.4696 25.7879C44.8916 26.0769 44.3136 26.5236 43.7881 27.1016C42.4219 28.5729 41.371 30.8324 40.9506 33.0394C39.6369 33.4335 38.3758 33.8276 37.1935 34.1954C37.9817 30.7273 40.8718 25.5514 44.1822 25.4463V25.4463Z" fill="#95BF47"/>
<path d="M60.5768 32.198C60.4192 32.1717 57.2663 32.1454 57.2663 32.1454C57.2663 32.1454 54.6127 29.5706 54.35 29.3079C54.2449 29.2028 54.1135 29.1503 53.9822 29.1503V68.429L65.8315 65.4863C65.8315 65.4863 60.9972 32.8023 60.9709 32.5658C60.9183 32.3293 60.7344 32.2243 60.5768 32.198Z" fill="#5E8E3E"/>
<path d="M47.4137 38.2934L46.0475 43.443C46.0475 43.443 44.5236 42.7336 42.6845 42.865C40.0046 43.0226 39.9783 44.7041 40.0046 45.1508C40.1622 47.4628 46.2051 47.962 46.5467 53.3481C46.8094 57.6043 44.2872 60.4944 40.6614 60.7309C36.3001 60.9936 33.9092 58.4451 33.9092 58.4451L34.8287 54.5304C34.8287 54.5304 37.2459 56.3432 39.1639 56.2381C40.425 56.1593 40.8716 55.1347 40.8191 54.399C40.6352 51.4038 35.6958 51.5615 35.3805 46.6484C35.1178 42.4972 37.8502 38.2934 43.8668 37.8993C46.2314 37.6891 47.4137 38.2934 47.4137 38.2934V38.2934Z" fill="white"/>
</svg>
