<svg width="96" height="96" viewBox="0 0 96 96" fill="none" xmlns="http://www.w3.org/2000/svg">
<rect width="96" height="96" rx="48" fill="white"/>
<g clip-path="url(#clip0)">
<path d="M40.3468 21.1307C37.4327 21.1307 35.0706 23.4981 35.0706 26.4175C35.0699 27.1111 35.2058 27.798 35.4706 28.439C35.7354 29.0801 36.1238 29.6627 36.6138 30.1536C37.1037 30.6445 37.6855 31.0341 38.326 31.3002C38.9666 31.5662 39.6532 31.7035 40.3468 31.7042H45.6238V26.4175C45.625 25.0167 45.0697 23.6728 44.0801 22.6813C43.0905 21.6899 41.7476 21.1321 40.3468 21.1307V21.1307ZM40.3468 35.2287H26.2761C23.362 35.2287 21 37.5961 21 40.5164C21 43.4358 23.362 45.8031 26.2761 45.8031H40.3476C43.2609 45.8031 45.6238 43.4358 45.6238 40.5164C45.6238 37.5961 43.2609 35.2287 40.3468 35.2287" fill="#36C5F0"/>
<path d="M73.7652 40.5164C73.7652 37.5961 71.4022 35.2287 68.4881 35.2287C65.574 35.2287 63.212 37.5961 63.212 40.5164V45.8031H68.4881C69.8889 45.8017 71.2318 45.244 72.2214 44.2525C73.211 43.2611 73.7663 41.9172 73.7652 40.5164V40.5164ZM59.6945 40.5164V26.4175C59.6957 25.0167 59.1404 23.6728 58.1508 22.6813C57.1612 21.6899 55.8183 21.1321 54.4175 21.1307C51.5034 21.1307 49.1414 23.4981 49.1414 26.4175V40.5155C49.1414 43.4367 51.5034 45.804 54.4175 45.804C55.8183 45.8026 57.1612 45.2448 58.1508 44.2534C59.1404 43.262 59.6957 41.9181 59.6945 40.5173" fill="#2EB67D"/>
<path d="M54.4175 74C55.8183 73.9986 57.1612 73.4409 58.1508 72.4494C59.1404 71.458 59.6957 70.1141 59.6945 68.7133C59.6957 67.3125 59.1404 65.9685 58.1508 64.9771C57.1612 63.9857 55.8183 63.4279 54.4175 63.4265H49.1414V68.7133C49.1414 71.6327 51.5034 74 54.4175 74ZM54.4175 59.902H68.489C71.4022 59.902 73.7652 57.5347 73.7652 54.6144C73.7663 53.2136 73.211 51.8697 72.2214 50.8782C71.2318 49.8868 69.8889 49.329 68.4881 49.3276H54.4175C51.5034 49.3276 49.1414 51.695 49.1414 54.6144C49.1407 55.308 49.2766 55.9949 49.5414 56.6359C49.8061 57.277 50.1946 57.8596 50.6845 58.3505C51.1744 58.8414 51.7563 59.231 52.3968 59.4971C53.0373 59.7631 53.7239 59.9004 54.4175 59.9011" fill="#ECB22E"/>
<path d="M21 54.6144C20.9993 55.308 21.1352 55.9949 21.4 56.6359C21.6648 57.277 22.0532 57.8596 22.5432 58.3505C23.0331 58.8414 23.6149 59.231 24.2554 59.4971C24.8959 59.7631 25.5826 59.9004 26.2762 59.9011C27.677 59.8997 29.0199 59.342 30.0095 58.3505C30.9991 57.3591 31.5544 56.0152 31.5532 54.6144V49.3276H26.2762C23.362 49.3276 21 51.695 21 54.6144V54.6144ZM35.0706 54.6144V68.7124C35.0706 71.6327 37.4327 74 40.3468 74C41.7476 73.9986 43.0905 73.4409 44.0801 72.4494C45.0697 71.458 45.625 70.1141 45.6238 68.7133V54.6144C45.6245 53.9207 45.4885 53.2338 45.2237 52.5927C44.9589 51.9516 44.5704 51.3689 44.0803 50.878C43.5903 50.387 43.0084 49.9974 42.3678 49.7314C41.7271 49.4654 41.0404 49.3282 40.3468 49.3276C37.4327 49.3276 35.0706 51.695 35.0706 54.6144Z" fill="#E01E5A"/>
</g>
<defs>
<clipPath id="clip0">
<rect width="53" height="53" fill="white" transform="translate(21 21)"/>
</clipPath>
</defs>
</svg>
