<svg width="96" height="96" viewBox="0 0 96 96" fill="none" xmlns="http://www.w3.org/2000/svg">
<rect width="96" height="96" rx="48" fill="white"/>
<path d="M24.8957 59.2403L25.1374 59.3174C28.0339 60.2485 31.1275 58.756 32.0139 56.0005L35.2912 45.2832C36.1765 42.5277 34.5317 39.5113 31.6362 38.5824L31.3945 38.5042C28.4979 37.5732 25.4044 39.0656 24.518 41.8211L21.2397 52.5374C20.3544 55.2929 21.9991 58.3093 24.8957 59.2403Z" fill="#1F65A6"/>
<path d="M46.1648 60.88C46.845 59.2839 47.3415 57.4463 47.8603 55.8157C49.0055 52.2166 50.0097 48.5565 51.1092 44.9451C51.5722 43.4303 52.0324 41.9145 52.49 40.3977C53.5053 37.2503 51.959 33.9161 49.0624 32.9861L48.8187 32.9079C45.9303 31.979 42.7443 33.7801 41.7239 36.9102L35.546 57.5092C34.6941 60.1591 32.6859 62.0871 30.3508 62.8354C30.1687 62.8985 29.9829 62.9504 29.7944 62.9907C28.5787 63.2815 27.3067 63.2341 26.116 62.8537L25.8734 62.7755C25.6815 62.7136 25.4977 62.6384 25.314 62.5613C26.5932 64.3999 29.167 66.3625 32.1793 67.3514C35.5297 68.4499 39.3807 67.9605 42.2671 65.9381C44.1484 64.6213 45.3028 62.9034 46.1648 60.88Z" fill="#328FF8"/>
<path d="M62.1646 60.8627C61.9158 61.5561 58.1593 71.3536 46.179 67.2417C46.9715 66.9376 47.6815 66.4516 48.2517 65.8227C48.8218 65.1938 49.2362 64.4397 49.4614 63.6212C49.8522 62.2526 53.3032 50.8622 53.3032 50.8622H53.3093L59.933 28.594C60.8183 25.8385 63.9129 24.3461 66.8095 25.2771L67.0511 25.3543C69.9477 26.2863 71.5925 29.3017 70.7061 32.0551L63.589 56.0005C63.589 56.0005 62.4092 60.1693 62.1646 60.8627Z" fill="#76C3FC"/>
</svg>
