<svg width="96" height="96" viewBox="0 0 96 96" fill="none" xmlns="http://www.w3.org/2000/svg">
<rect width="96" height="96" rx="48" fill="white"/>
<path d="M51.539 37.1822C50.3621 37.8006 49.9006 38.8436 49.9006 41.7234C50.3349 41.3337 50.8392 41.0299 51.3867 40.8281C51.9329 40.6284 52.4486 40.3535 52.9189 40.0112C53.9157 39.2728 54.0541 38.3314 54.0541 36.7484C54.0541 36.7484 52.4435 36.7069 51.539 37.1822V37.1822Z" fill="#1D1D1B"/>
<path d="M44.5473 37.8577C43.9304 38.4576 43.4981 39.2214 43.3013 40.0591L40.1169 52.3904L37.4725 42.3204C37.2262 41.1224 36.7292 39.99 36.0142 38.9976C35.0912 37.8577 33.1713 37.7839 32.9683 37.7839C32.7652 37.7839 30.8592 37.8577 29.9224 38.9976C29.2074 39.99 28.7104 41.1224 28.464 42.3204L25.815 52.3904L22.6306 40.0591C22.4366 39.2214 22.0057 38.4572 21.3892 37.8577C19.8293 36.4824 17.4941 36.7824 17.4941 36.7824L23.5952 59.8298C23.5952 59.8298 25.6073 59.9775 26.6134 59.4606C27.9333 58.7868 28.5609 58.2699 29.3824 55.1317C30.0562 52.335 32.0637 44.1203 32.2529 43.5388C32.3452 43.248 32.4606 42.5558 32.9683 42.5558C33.4759 42.5558 33.5913 43.248 33.6836 43.5388C33.8682 44.1249 35.8619 52.335 36.5772 55.1317C37.3756 58.2699 38.0079 58.7868 39.3462 59.4606C40.3523 59.9775 42.3644 59.8298 42.3644 59.8298L48.4424 36.7824C48.4424 36.7824 46.1072 36.4824 44.5473 37.8577Z" fill="#1D1D1B"/>
<path d="M54.0541 40.542C53.7212 40.9878 53.2942 41.3549 52.8035 41.6173C52.2451 41.9265 51.7097 42.1388 51.1328 42.4157C50.1821 42.8772 49.9006 43.394 49.9006 44.1647V59.8281C49.9006 59.8281 51.442 60.0219 52.4481 59.5097C53.7403 58.8497 54.0403 58.2128 54.0495 55.3561V41.3957L54.0541 40.542Z" fill="#1D1D1B"/>
<path d="M69.2837 48.3598L77 36.8546C77 36.8546 73.7372 36.2962 72.1219 37.7776C71.3098 38.5849 70.5758 39.4672 69.9298 40.4128L67.0823 44.5155C67.0413 44.6443 66.9604 44.7567 66.8513 44.8365C66.7422 44.9162 66.6106 44.9592 66.4754 44.9592C66.3403 44.9592 66.2086 44.9162 66.0995 44.8365C65.9904 44.7567 65.9096 44.6443 65.8686 44.5155L63.0211 40.4128C62.3735 39.4684 61.6396 38.5863 60.829 37.7776C59.2137 36.3054 55.9463 36.8546 55.9463 36.8546L63.6857 48.3598L55.9694 59.8281C55.9694 59.8281 59.3706 60.2573 60.9859 58.7851C61.7487 58.0338 62.4309 57.2048 63.0211 56.3115L65.8686 52.2087C65.9096 52.0799 65.9904 51.9675 66.0995 51.8878C66.2086 51.808 66.3403 51.765 66.4754 51.765C66.6106 51.765 66.7422 51.808 66.8513 51.8878C66.9604 51.9675 67.0413 52.0799 67.0823 52.2087L69.9298 56.3115C70.5484 57.2004 71.2499 58.0287 72.025 58.7851C73.6402 60.2573 76.9815 59.8281 76.9815 59.8281L69.2837 48.3598Z" fill="#1D1D1B"/>
</svg>
