<svg width="96" height="96" viewBox="0 0 96 96" fill="none" xmlns="http://www.w3.org/2000/svg">
<rect width="96" height="96" rx="48" fill="white"/>
<path opacity="0.8" d="M24.5723 48C24.5723 57.2838 29.9723 65.28 37.7815 69.0808L26.6077 38.4669C25.2659 41.466 24.5724 44.7145 24.5723 48ZM48 71.4277C50.7208 71.4277 53.3377 70.95 55.7885 70.0985L55.6223 69.7869L48.4154 50.0562L41.3954 70.4723C43.4723 71.0954 45.6946 71.4277 48 71.4277ZM51.2192 37.0131L59.6931 62.2062L62.04 54.3969C63.0369 51.1569 63.8054 48.8308 63.8054 46.8162C63.8054 43.9085 62.7669 41.9146 61.8946 40.3777C60.69 38.4254 59.5892 36.7846 59.5892 34.8738C59.5892 32.7138 61.2092 30.72 63.5354 30.72H63.8262C59.5094 26.757 53.86 24.5625 48 24.5723C44.1199 24.5716 40.3005 25.5354 36.8854 27.3771C33.4702 29.2188 30.5665 31.8806 28.4354 35.1231L29.9308 35.1646C32.3815 35.1646 36.1615 34.8531 36.1615 34.8531C37.4492 34.7908 37.5946 36.6392 36.3277 36.7846C36.3277 36.7846 35.0608 36.9508 33.6277 37.0131L42.1846 62.3931L47.3146 47.0238L43.6592 37.0131C42.8404 36.9679 42.0232 36.8986 41.2085 36.8054C39.9415 36.7223 40.0869 34.7908 41.3538 34.8531C41.3538 34.8531 45.2169 35.1646 47.5223 35.1646C49.9731 35.1646 53.7531 34.8531 53.7531 34.8531C55.02 34.7908 55.1862 36.6392 53.9192 36.7846C53.9192 36.7846 52.6523 36.93 51.2192 37.0131ZM59.7762 68.25C63.3203 66.1892 66.2616 63.2345 68.3062 59.681C70.3509 56.1275 71.4272 52.0997 71.4277 48C71.4277 43.9292 70.3892 40.1077 68.5615 36.7638C68.9327 40.4427 68.3757 44.1558 66.9415 47.5638L59.7762 68.25ZM48 75C40.8392 75 33.9716 72.1554 28.9081 67.0919C23.8446 62.0284 21 55.1608 21 48C21 40.8392 23.8446 33.9716 28.9081 28.9081C33.9716 23.8446 40.8392 21 48 21C55.1608 21 62.0284 23.8446 67.0919 28.9081C72.1554 33.9716 75 40.8392 75 48C75 55.1608 72.1554 62.0284 67.0919 67.0919C62.0284 72.1554 55.1608 75 48 75Z" fill="black"/>
</svg>
