<svg width="36" height="36" viewBox="0 0 36 36" fill="none" xmlns="http://www.w3.org/2000/svg">
<path d="M21.3333 12C21.5083 11.8249 21.7162 11.686 21.945 11.5913C22.1738 11.4965 22.419 11.4478 22.6666 11.4478C22.9142 11.4478 23.1594 11.4965 23.3882 11.5913C23.617 11.686 23.8248 11.8249 23.9999 12C24.175 12.1751 24.3139 12.383 24.4087 12.6118C24.5034 12.8406 24.5522 13.0857 24.5522 13.3334C24.5522 13.581 24.5034 13.8262 24.4087 14.055C24.3139 14.2837 24.175 14.4916 23.9999 14.6667L14.9999 23.6667L11.3333 24.6667L12.3333 21L21.3333 12Z" stroke="#C1C1C1" stroke-width="1.5" stroke-linecap="round" stroke-linejoin="round"/>
<line x1="20.5303" y1="13.4697" x2="22.5303" y2="15.4697" stroke="#C1C1C1" stroke-width="1.5"/>
</svg>
